<?xml version="1.0" encoding="UTF-8"?>
<svg id="Layer_2" data-name="Layer 2" xmlns="http://www.w3.org/2000/svg" viewBox="0 0 256.1 318.63" width="50" height="50">
  <defs>
    <style>
      .cls-1 {
        fill: #c9011e;
      }
    </style>
  </defs>
  <g id="Layer_1-2" data-name="Layer 1">
    <g>
      <path class="cls-1" d="m0,73.5v73.5h38v-43h20.4c26,0,30.5,1.1,39.3,9.8,8.3,8.1,10.3,12.9,10.3,24.2v9h39.3l-.6-10.8c-.3-5.9-1.3-13.4-2.2-16.7-2.4-8.8-8.8-21.2-14.1-27.2l-4.5-5.3,3.9-4.7c13.3-15.9,17.2-30,17.2-61.9V0h-39v42.7l-3.5,7.1c-3.7,7.4-8.9,12.8-15.2,16.1-6.5,3.2-14.7,4.2-33.3,3.9l-17.5-.3-.3-34.8-.2-34.7H0v73.5Z"/>
      <path class="cls-1" d="m169,134v14.1l13.8-.3,13.7-.3.3-13.8.3-13.7h-28.1v14Z"/>
      <path class="cls-1" d="m1,212.7c0,43.8.4,48.1,5.3,60.3,8.9,21.9,27.8,38.1,51.8,44.1,7.5,1.9,25.8,1.7,33.9-.4,9.6-2.5,21.6-8.8,29.7-15.6l7.1-5.9,2.3,2.5c3.3,3.5,13.4,10.5,19.4,13.6,16.9,8.4,38.4,9.7,56.1,3.3,17.2-6.3,33.9-20.7,41.3-35.7,7.5-15.3,7.5-15.2,7.9-63.7l.3-43.2h-38l-.3,40.8-.3,40.7-3.3,6.7c-4.1,8.4-12.1,15.9-19.4,18.4-14.3,4.8-32.5-1-40.7-13-6-8.6-6.1-9.9-6.1-53.6v-40h-38.9l-.3,41.2-.3,41.3-2.8,5.3c-8,15.2-21.4,22.6-36.3,20.2-12.2-2-21.6-8.7-26.6-18.8l-3.3-6.7-.3-41.2-.3-41.3H1v40.7Z"/>
    </g>
  </g>
</svg>