<?xml version="1.0" encoding="UTF-8"?>
<svg id="Layer_1" data-name="Layer 1" xmlns="http://www.w3.org/2000/svg" viewBox="0 0 512 512">
  <defs>
    <style>
      .cls-1 {
        fill: #c9011e;
      }
    </style>
  </defs>
  <path class="cls-1" d="m265,1.4c0,1.8-2.6,26.4-3.5,32.8l-.5,3.8h8.8l.6-4.3c.3-2.3.8-7,1.2-10.5.4-3.4.9-6.2,1.3-6.2.3.1,3.8,5.3,7.6,11.8l7,11.7,4.3.3c3.5.3,4.2,0,4.2-1.5,0-2.4,2.8-28,3.5-31.9.5-3,.4-3.1-3.7-3.7-2.3-.3-4.4-.5-4.5-.4s-.7,5.1-1.4,11c-.6,5.9-1.5,10.7-1.8,10.7-.3-.1-3.7-5.5-7.6-12-5.2-9.1-7.4-12-9-12-1.1,0-3-.3-4.2-.6-1.7-.5-2.3-.2-2.3,1Z"/>
  <path class="cls-1" d="m231.6,1.9l-3.9.6-6.4,18.9c-3.4,10.4-6.1,19.1-5.9,19.4.2.2,2.4,0,4.9-.3,3.9-.6,4.6-1.1,5.4-3.8.8-2.8,1.4-3.3,5.3-3.9,2.5-.3,6.4-.7,8.6-.7,3.7-.1,4.3.2,5.4,3,1.3,3,1.6,3.1,5.7,2.6,2.4-.2,4.6-.7,4.9-1,.8-.8-18-35.7-19.1-35.5-.5,0-2.8.4-4.9.7Zm7.4,21.7c0,1.2-8.9,2.5-9.4,1.4-.2-.3.6-3.4,1.7-7l1.9-6.5,2.9,5.5c1.5,3,2.8,6,2.9,6.6Z"/>
  <path class="cls-1" d="m191.1,8.4c-4,1.4-4.4,2.3-6,14.1-.7,4.9-1.4,9.6-1.6,10.2-.3.7-4.2-2.6-8.9-7.4l-8.4-8.8-4.8,1.3c-2.7.7-5,1.4-5.1,1.6-.3.3,10.6,34.8,11.2,35.4s7.5-1.9,7.5-2.7c0-.4-1.5-5.3-3.4-10.9s-3.1-10.2-2.7-10.2c.3,0,3.8,3.4,7.7,7.6,6.7,7.3,7.2,7.6,10,6.7s2.9-1.2,4.4-11.6c.8-5.9,1.7-10.7,2-10.7s2,4.9,3.9,10.8l3.3,10.9,3.9-1.1c2.1-.5,3.9-1.3,3.9-1.6,0-.4-2.4-8.3-5.4-17.6-3.3-10.6-5.8-17-6.7-17.1-.8-.1-2.9.4-4.8,1.1Z"/>
  <path class="cls-1" d="m317.1,10.2c-4,10.7-7.3,24-6.7,27.1,1.6,8.8,13.1,15.2,22.5,12.7,6-1.6,8.7-5.4,13.1-18.5,2.2-6.6,4-12.2,4-12.5,0-.6-6.7-3-8.3-3-.3,0-2.2,4.9-4.1,10.8-4.5,13.5-5.7,15.2-10.2,15.2s-7.4-2.9-7.4-7c0-1.7,1.5-7.8,3.4-13.6l3.4-10.5-2.1-.8c-6.1-2.3-6.7-2.3-7.6.1Z"/>
  <path class="cls-1" d="m356.5,41.1c-4.7,8.7-8.5,16.2-8.5,16.7,0,.4,1.7,1.8,3.8,3l3.8,2.1,3.3-6c1.8-3.2,3.4-5.9,3.5-5.9.2,0,3.5,1.8,7.4,3.9l7.1,3.9,2-3.3,1.9-3.3-7.1-3.8c-4-2-7.3-3.8-7.5-3.9-.6-.5,3.2-7.5,4.1-7.5.6,0,4.3,1.8,8.3,4l7.3,4,1.7-2.5c.9-1.3,1.4-2.9,1.2-3.5-.2-.7-5.6-4-12-7.5l-11.7-6.3-8.6,15.9Z"/>
  <path class="cls-1" d="m114.8,44.8C32.1,99.5-11.8,198.6,3.6,296.3c7,44.5,25.6,86.4,53.9,121.2,9.8,12.1,31.8,33.4,43.7,42.3,93.9,70.4,220.1,68.8,312.3-3.8,10.9-8.6,30.1-27.6,39-38.5,10.6-13.1,20.8-28.6,19.7-29.7-.6-.6-6.5-4.3-13.3-8.4l-12.3-7.3-7.3,10.8c-36.4,53.8-92,87.7-157.8,96.1-21.8,2.8-58.9.5-80.3-4.9-40.9-10.5-73.9-29.5-104.3-60-35.7-35.9-56.8-78.4-63.5-128.1-1.9-14.2-1.8-42.8.2-58.2,8.2-63.5,45-121.7,100.2-158.3,3.9-2.6,7.2-5,7.2-5.2,0-.7-15.1-26.3-15.5-26.3-.2,0-5,3.1-10.7,6.8Z"/>
  <path class="cls-1" d="m393.5,61c-7.7,4.4-15.2,8.5-16.7,9.1-1.6.6-2.8,1.4-2.8,1.8,0,.3,1.6,1.8,3.5,3.4,3.3,2.7,3.5,2.7,6.9,1.1l3.4-1.7,6.2,4.8c6,4.6,6.1,4.8,5.5,8.5-.6,3.5-.4,4,3,6.5,1.9,1.5,3.7,2.6,3.9,2.4.3-.2,2.7-8.9,5.6-19.4l5.1-19-3.3-2.7c-1.8-1.5-4-2.7-4.8-2.7s-7.8,3.6-15.5,7.9Zm11.3,9.3l-2,6.7-4-3.1c-2.1-1.8-3.6-3.5-3.1-3.9,1.2-1.2,10.7-6.9,11-6.7.1.2-.7,3.3-1.9,7Z"/>
  <path class="cls-1" d="m428.5,83.5c-2.2.8-5.7,3.2-7.7,5.3-10.9,11.7-4.5,29.1,12,32.7,3.2.7,3.2.6,3.2-3.3s-.3-4.1-3.5-5.2c-7.8-2.6-10.2-11.9-4.4-17.7,3.9-4,7.8-4.9,12.2-2.8,3.9,1.8,5.9,5,6.1,9.4.1,2.9.3,3.1,4.4,3.1,3.6,0,4.2-.3,4.2-2.1,0-7.9-7-17.4-14.6-19.7-5.2-1.5-6.9-1.5-11.9.3Z"/>
  <path class="cls-1" d="m120,177.5v73.5h38v-43h20.4c26,0,30.5,1.1,39.3,9.8,8.3,8.1,10.3,12.9,10.3,24.2v9h39.3l-.6-10.8c-.3-5.9-1.3-13.4-2.2-16.7-2.4-8.8-8.8-21.2-14.1-27.2l-4.5-5.3,3.9-4.7c13.3-15.9,17.2-30,17.2-61.9v-20.4h-39v42.7l-3.5,7.1c-3.7,7.4-8.9,12.8-15.2,16.1-6.5,3.2-14.7,4.2-33.3,3.9l-17.5-.3-.3-34.8-.2-34.7h-38v73.5Z"/>
  <path class="cls-1" d="m462.7,113.6l-2.8,1.5,2.5,4.4c1.4,2.4,2.6,4.7,2.6,5.2s-5.6,4.2-12.4,8.3l-12.4,7.4,2.1,3.8c1.2,2.1,2.5,3.8,2.9,3.8s6.2-3.3,13-7.4l12.3-7.4,3,4.8,3,4.9,3.3-2.1,3.2-2-1.9-3.2c-1-1.7-4.6-7.6-7.8-13.1-3.3-5.4-6.4-10-6.9-10.2-.5-.1-2.2.5-3.7,1.3Z"/>
  <path class="cls-1" d="m475.8,154.9c-6.4,2.6-12.4,5.3-13.3,6.1-5.1,4.2-6.1,13.3-2.3,20.7,5.1,10.3,11.8,11.3,29.5,4.4l11.1-4.3-1.5-3.7c-.8-2-1.8-3.9-2.1-4.3-.4-.3-5.2,1.1-10.7,3.3-11.6,4.5-16.6,5-18.9,1.7-1.9-2.7-2-6.1-.4-8.8.8-1.2,6-3.8,13-6.6l11.6-4.5-1.5-4.5c-.8-2.4-1.8-4.4-2.1-4.3-.4,0-6,2.2-12.4,4.8Z"/>
  <path class="cls-1" d="m485.2,201.3l-17.2,3.1.6,3.5c1,6,.8,5.9,6,5,2.6-.5,4.9-.7,5.1-.5s.6,1.9,1,3.8c.5,3.3.2,3.8-4.1,6.8l-4.6,3.4.6,5c.4,2.8.8,5.3,1.1,5.5.2.3,2.5-1.7,5.2-4.3l4.8-4.7,3.7,2.2c6.7,3.9,16,2,19.1-4.1,1.9-3.7,1.9-8.2,0-19-.8-4.7-1.5-8.6-1.5-8.8,0-.4-2.1-.1-19.8,3.1Zm14.2,9.3c1,2.7.7,9.9-.6,11.2-.7.7-2.7,1.2-4.6,1.2-2.9,0-3.5-.5-4.8-3.6-.8-2-1.4-4.8-1.2-6.3.2-2.1,1-2.7,3.8-3.2,5.8-1.1,6.8-1,7.4.7Z"/>
  <path class="cls-1" d="m289,238v14.1l13.8-.3,13.7-.3.3-13.8.3-13.7h-28.1v14Z"/>
  <path class="cls-1" d="m477.5,245.8l-4,.3.3,4.4.4,4.5h11.7c6.4,0,14.6-.3,18.4-.7l6.7-.6v-8.9l-14.7.4c-8.2.1-16.6.4-18.8.6Z"/>
  <path class="cls-1" d="m473.9,270.3l-.4,4.5,8.6,1.1c4.7.6,9.5,1.1,10.7,1.1s2.2.3,2.2.7c0,.5-5.4,3.9-12,7.7-10.8,6.1-12,7.2-12.1,9.7-.1,1.6-.2,3.4-.3,4.1-.1.9,5.3,1.9,16.9,3.5,22.5,2.9,20.5,3.1,20.5-2.1v-4.4l-10.5-1.2c-5.8-.7-10.5-1.6-10.5-1.9s5.4-3.6,11.9-7.4c11.8-6.7,11.9-6.7,12.3-10.7.4-4.8,1.7-4.3-16.7-6.5-7.1-.8-14.6-1.8-16.6-2.1l-3.7-.5-.3,4.4Z"/>
  <path class="cls-1" d="m121,316.7c0,43.8.4,48.1,5.3,60.3,8.9,21.9,27.8,38.1,51.8,44.1,7.5,1.9,25.8,1.7,33.9-.4,9.6-2.5,21.6-8.8,29.7-15.6l7.1-5.9,2.3,2.5c3.3,3.5,13.4,10.5,19.4,13.6,16.9,8.4,38.4,9.7,56.1,3.3,17.2-6.3,33.9-20.7,41.3-35.7,7.5-15.3,7.5-15.2,7.9-63.7l.3-43.2h-38l-.3,40.8-.3,40.7-3.3,6.7c-4.1,8.4-12.1,15.9-19.4,18.4-14.3,4.8-32.5-1-40.7-13-6-8.6-6.1-9.9-6.1-53.6v-40h-38.9l-.3,41.2-.3,41.3-2.8,5.3c-8,15.2-21.4,22.6-36.3,20.2-12.2-2-21.6-8.7-26.6-18.8l-3.3-6.7-.3-41.2-.3-41.3h-37.9v40.7Z"/>
  <path class="cls-1" d="m474.1,315.5c-8.6,2.7-14.1,11.1-14.1,21.6,0,2.6.3,5.4.6,6.3.7,1.9,13.2,6.2,14.5,4.9.5-.5,1.1-2.2,1.5-3.8.5-2.8.3-3.1-3.8-4.5-3.5-1.2-4.4-2-4.6-4.2-.5-3.9,2.4-8.6,6.2-10.5,4.9-2.3,9.7-1.1,13.6,3.4,2.8,3.1,3.1,4.2,2.7,7.6-.4,2.8-1.6,5.1-4,7.5l-3.5,3.5,2.1,3.3c1.2,1.9,2.5,3.4,2.9,3.4,1.6,0,8.6-9.2,9.6-12.8,2.3-7.5.8-15.6-3.6-20.5-4.5-5-13.4-7.3-20.1-5.2Z"/>
</svg>